<?xml version="1.0" encoding="UTF-8" standalone="no"?>
<svg width="28px" height="18px" viewBox="0 0 28 18" version="1.1" xmlns="http://www.w3.org/2000/svg" xmlns:xlink="http://www.w3.org/1999/xlink">
    <!-- Generator: Sketch 3.7.1 (28215) - http://www.bohemiancoding.com/sketch -->
    <title>Slice 1</title>
    <desc>Created with Sketch.</desc>
    <defs></defs>
    <g id="Page-1" stroke="none" stroke-width="1" fill="none" fill-rule="evenodd">
        <g id="noun_98601_cc" fill="#6B6B6B">
            <g id="Group">
                <path d="M4.54109589,15.8666667 L3.9734589,15.8666667 C1.77897432,15.8666667 0,14.0907333 0,11.9 C0,9.70888889 1.77897432,7.93333333 3.9734589,7.93333333 L5.67636986,7.93333333 L5.67636986,5.66666667 L9.08219178,8.5 L5.67636986,11.3333333 L5.67636986,9.06666667 L3.9734589,9.06666667 C2.40602397,9.06666667 1.13527397,10.3352444 1.13527397,11.9 C1.13527397,13.4647556 2.40602397,14.7333333 3.9734589,14.7333333 L4.54109589,14.7333333 L4.54109589,15.8666667 L4.54109589,15.8666667 L4.54109589,15.8666667 Z M27.2465753,6.8 L27.2465753,10.2 L11.3527397,10.2 L11.3527397,6.8 L27.2465753,6.8 Z M6.81164384,13.6 L22.7054795,13.6 L22.7054795,17 L6.81164384,17 L6.81164384,13.6 L6.81164384,13.6 L6.81164384,13.6 Z M6.81164384,0 L22.7054795,0 L22.7054795,3.4 L6.81164384,3.4 L6.81164384,0 L6.81164384,0 L6.81164384,0 Z" id="Shape"></path>
            </g>
        </g>
    </g>
</svg>