<?xml version="1.0" encoding="UTF-8" standalone="no"?>
<svg width="44px" height="51px" viewBox="0 0 44 51" version="1.1" xmlns="http://www.w3.org/2000/svg" xmlns:xlink="http://www.w3.org/1999/xlink">
    <!-- Generator: Sketch 3.6.1 (26313) - http://www.bohemiancoding.com/sketch -->
    <title>Slice 1</title>
    <desc>Created with Sketch.</desc>
    <defs></defs>
    <g id="Page-1" stroke="none" stroke-width="1" fill="none" fill-rule="evenodd">
        <g id="1455003229_lifestyle" fill="#303A3F">
            <g id="Layer_1">
                <g id="Group">
                    <path d="M26.8026786,12.0350764 C26.8125,11.8987568 26.8419643,11.7624371 26.8419643,11.6261175 C26.8419643,9.24052387 24.8875,7.30283762 22.48125,7.30283762 C20.075,7.30283762 18.1205357,9.24052387 18.1205357,11.6261175 C18.1205357,11.7721742 18.15,11.8987568 18.1598214,12.0350764 L26.8026786,12.0350764 L26.8026786,12.0350764 Z" id="Shape"></path>
                    <path d="M41.6035714,0.0194742337 L35.2294643,0.0194742337 C34.4535714,0.0194742337 33.7464286,0.477118724 33.4321429,1.18792825 L28.0991071,13.3398501 L1.80714286,13.3398501 C0.235714286,13.3398501 -0.55,15.2191136 0.559821429,16.3291449 L17.3446429,32.9698776 L17.3446429,47.0108 L10.5875,47.0108 C9.75267857,47.0108 9.06517857,47.6923982 9.06517857,48.5200531 C9.06517857,49.3477081 9.75267857,50.0293063 10.5875,50.0293063 L27.0875,50.0293063 C27.9223214,50.0293063 28.6098214,49.3477081 28.6098214,48.5200531 C28.6098214,47.6923982 27.9223214,47.0108 27.0875,47.0108 L20.3303571,47.0108 L20.3303571,32.9601405 L37.125,16.3194078 C38.2348214,15.2191136 37.4491071,13.3301129 35.8776786,13.3301129 L32.3714286,13.3301129 L36.5160714,3.90458385 L41.6035714,3.90458385 C42.6839286,3.90458385 43.5678571,3.03798045 43.5678571,1.95716048 C43.5678571,0.895814748 42.69375,0.0194742337 41.6035714,0.0194742337 L41.6035714,0.0194742337 Z" id="Shape"></path>
                </g>
            </g>
        </g>
    </g>
</svg>